<svg width="21" height="21" viewBox="0 0 21 21" fill="none" xmlns="http://www.w3.org/2000/svg">
<circle cx="10.5" cy="10.5" r="10.5" fill="#F7B731" fill-opacity="0.12"/>
<path d="M11.4989 15.0591C11.4988 15.3497 11.4192 15.6338 11.2705 15.8754C11.1217 16.117 10.9104 16.3052 10.6631 16.4164C10.4159 16.5275 10.1439 16.5565 9.88149 16.4998C9.61909 16.443 9.37806 16.303 9.18886 16.0975C8.99967 15.892 8.87081 15.6301 8.81856 15.3451C8.76632 15.06 8.79303 14.7645 8.89533 14.4959C8.99763 14.2274 9.17092 13.9978 9.3933 13.8362C9.61569 13.6745 9.87719 13.5882 10.1447 13.588C10.3227 13.5874 10.499 13.6251 10.6636 13.6988C10.8281 13.7726 10.9776 13.8809 11.1034 14.0176C11.2293 14.1543 11.329 14.3167 11.3969 14.4955C11.4648 14.6742 11.4994 14.8657 11.4989 15.0591Z" fill="#FF7600"/>
<path d="M13.9516 7.64328C13.9541 8.12405 13.863 8.59996 13.6841 9.03972C13.6066 9.22901 13.5138 9.4104 13.4066 9.58172C13.1845 9.93052 12.918 10.2433 12.615 10.5109C12.563 10.5582 12.506 10.6074 12.4297 10.6712C12.3341 10.7486 12.2276 10.8297 12.1052 10.9171C11.889 11.069 11.681 11.2342 11.4822 11.4118C11.3642 11.5116 11.262 11.6316 11.1795 11.767C11.0763 11.9629 11.0243 12.3418 11.0243 12.8938V12.9849H8.76374V12.5586C8.76374 12.2252 8.77129 11.9447 8.78553 11.7005C8.7958 11.4793 8.81707 11.2588 8.84926 11.0401C8.87139 10.8477 8.92476 10.6611 9.00689 10.489C9.15531 10.2203 9.51335 9.855 10.1003 9.37221C10.1255 9.35217 10.1506 9.33121 10.1766 9.31026C10.2009 9.29204 10.2244 9.27291 10.2487 9.25287C10.4521 9.09597 10.6393 8.91579 10.8072 8.71543C10.8562 8.65303 10.9016 8.58731 10.943 8.51867L10.9539 8.50045C11.0854 8.24751 11.1498 7.95997 11.1401 7.66969C11.1407 7.59625 11.1362 7.52287 11.1267 7.45016C11.1006 7.16657 10.9794 6.90331 10.7862 6.71049C10.5766 6.50176 10.3064 6.37929 10.0223 6.36433C9.98628 6.36069 9.95275 6.35978 9.91836 6.35978C9.78473 6.35897 9.65151 6.37611 9.52175 6.41079C9.27851 6.47598 9.06028 6.62256 8.8979 6.82982C8.81184 6.94018 8.73862 7.06164 8.67988 7.19145C8.48178 7.68792 8.35509 8.2145 8.30423 8.75277L8.29583 8.84842L6.16771 8.23264V7.21332C6.17778 7.17232 6.18867 7.13133 6.20042 7.09125C6.33628 6.58004 6.55274 6.0983 6.84019 5.66748C6.96306 5.48466 7.10146 5.31479 7.25357 5.16009C7.28962 5.12093 7.32905 5.08267 7.36846 5.04532C7.62452 4.80382 7.90903 4.60041 8.2145 4.44047L8.24134 4.4268C8.81995 4.13629 9.45122 3.9906 10.0886 4.00049C10.1548 4.00049 10.2328 4.0014 10.3099 4.00595C10.9433 4.0234 11.5649 4.19557 12.1287 4.50969C12.3818 4.65206 12.619 4.82567 12.8355 5.0271C13.4431 5.56508 13.8342 6.33859 13.9264 7.18416C13.9432 7.33652 13.9516 7.48983 13.9516 7.64328Z" fill="#FF7600"/>
<path opacity="0.3" d="M12.4347 15.0591C12.4345 15.3497 12.355 15.6338 12.2063 15.8754C12.0575 16.117 11.8461 16.3052 11.5989 16.4164C11.3517 16.5275 11.0797 16.5565 10.8173 16.4998C10.5549 16.443 10.3138 16.303 10.1246 16.0975C9.93543 15.892 9.80657 15.6301 9.75432 15.3451C9.70208 15.06 9.72879 14.7645 9.83109 14.4959C9.93339 14.2274 10.1067 13.9978 10.3291 13.8362C10.5515 13.6745 10.813 13.5882 11.0805 13.588C11.2585 13.5874 11.4348 13.6251 11.5993 13.6988C11.7639 13.7726 11.9133 13.8809 12.0392 14.0176C12.165 14.1543 12.2648 14.3167 12.3327 14.4955C12.4005 14.6742 12.4352 14.8657 12.4347 15.0591Z" fill="black"/>
<path opacity="0.3" d="M14.8874 7.64328C14.8899 8.12405 14.7988 8.59996 14.6199 9.03972C14.5424 9.22901 14.4495 9.4104 14.3423 9.58172C14.1202 9.93052 13.8537 10.2433 13.5508 10.5109C13.4988 10.5582 13.4418 10.6074 13.3654 10.6712C13.2699 10.7486 13.1634 10.8297 13.041 10.9171C12.8248 11.069 12.6168 11.2342 12.4179 11.4118C12.3 11.5116 12.1978 11.6316 12.1152 11.767C12.0121 11.9629 11.9601 12.3418 11.9601 12.8938V12.9849H9.6995V12.5586C9.6995 12.2252 9.70705 11.9447 9.72129 11.7005C9.73156 11.4793 9.75283 11.2588 9.78502 11.0401C9.80715 10.8477 9.86052 10.6611 9.94265 10.489C10.0911 10.2203 10.4491 9.855 11.0361 9.37221C11.0612 9.35217 11.0864 9.33121 11.1124 9.31026C11.1367 9.29204 11.1602 9.27291 11.1845 9.25287C11.3878 9.09597 11.5751 8.91579 11.7429 8.71543C11.792 8.65303 11.8374 8.58731 11.8788 8.51867L11.8897 8.50045C12.0211 8.24751 12.0856 7.95997 12.0758 7.66969C12.0765 7.59625 12.072 7.52287 12.0624 7.45016C12.0363 7.16657 11.9152 6.90331 11.722 6.71049C11.5124 6.50176 11.2421 6.37929 10.9581 6.36433C10.922 6.36069 10.8885 6.35978 10.8541 6.35978C10.7205 6.35897 10.5873 6.37611 10.4575 6.41079C10.2143 6.47598 9.99604 6.62256 9.83366 6.82982C9.7476 6.94018 9.67438 7.06164 9.61564 7.19145C9.41754 7.68792 9.29085 8.2145 9.23999 8.75277L9.23159 8.84842L7.10347 8.23264V7.21332C7.11354 7.17232 7.12443 7.13133 7.13618 7.09125C7.27204 6.58004 7.4885 6.0983 7.77596 5.66748C7.89882 5.48466 8.03722 5.31479 8.18933 5.16009C8.22538 5.12093 8.26481 5.08267 8.30422 5.04532C8.56028 4.80382 8.84479 4.60041 9.15026 4.44047L9.1771 4.4268C9.75571 4.13629 10.387 3.9906 11.0243 4.00049C11.0906 4.00049 11.1686 4.0014 11.2457 4.00595C11.8791 4.0234 12.5007 4.19557 13.0644 4.50969C13.3176 4.65206 13.5548 4.82567 13.7713 5.0271C14.3788 5.56508 14.77 6.33859 14.8622 7.18416C14.879 7.33652 14.8874 7.48983 14.8874 7.64328Z" fill="black"/>
<path d="M11.5124 15.0591C11.5122 15.3497 11.4327 15.6338 11.2839 15.8754C11.1351 16.117 10.9238 16.3052 10.6765 16.4164C10.4293 16.5275 10.1573 16.5565 9.8949 16.4998C9.63249 16.443 9.39146 16.303 9.20226 16.0975C9.01307 15.892 8.88421 15.6301 8.83196 15.3451C8.77971 15.06 8.80643 14.7645 8.90873 14.4959C9.01103 14.2274 9.18432 13.9978 9.40671 13.8362C9.62909 13.6745 9.89059 13.5882 10.1581 13.588C10.3361 13.5874 10.5124 13.6251 10.677 13.6988C10.8415 13.7726 10.991 13.8809 11.1168 14.0176C11.2427 14.1543 11.3424 14.3167 11.4103 14.4955C11.4782 14.6742 11.5129 14.8657 11.5124 15.0591Z" fill="#FF7600"/>
<path d="M13.965 7.64328C13.9676 8.12405 13.8764 8.59996 13.6975 9.03972C13.6201 9.22901 13.5272 9.4104 13.42 9.58172C13.1979 9.93052 12.9314 10.2433 12.6284 10.5109C12.5764 10.5582 12.5194 10.6074 12.4431 10.6712C12.3475 10.7486 12.241 10.8297 12.1186 10.9171C11.9024 11.069 11.6944 11.2342 11.4956 11.4118C11.3777 11.5116 11.2754 11.6316 11.1929 11.767C11.0898 11.9629 11.0378 12.3418 11.0378 12.8938V12.9849H8.77714V12.5586C8.77714 12.2252 8.78469 11.9447 8.79894 11.7005C8.8092 11.4793 8.83048 11.2588 8.86267 11.0401C8.8848 10.8477 8.93817 10.6611 9.0203 10.489C9.16871 10.2203 9.52676 9.855 10.1137 9.37221C10.1389 9.35217 10.164 9.33121 10.19 9.31026C10.2144 9.29204 10.2378 9.27291 10.2621 9.25287C10.4655 9.09597 10.6527 8.91579 10.8206 8.71543C10.8696 8.65303 10.915 8.58731 10.9564 8.51867L10.9673 8.50045C11.0988 8.24751 11.1632 7.95997 11.1535 7.66969C11.1541 7.59625 11.1496 7.52287 11.1401 7.45016C11.114 7.16657 10.9928 6.90331 10.7996 6.71049C10.59 6.50176 10.3198 6.37929 10.0357 6.36433C9.99969 6.36069 9.96616 6.35978 9.93177 6.35978C9.79813 6.35897 9.66492 6.37611 9.53515 6.41079C9.29192 6.47598 9.07369 6.62256 8.91131 6.82982C8.82525 6.94018 8.75202 7.06164 8.69329 7.19145C8.54235 7.51848 8.44425 7.95207 8.40148 8.4795L8.39309 8.57515L6 8.2044L6.01173 8.11422C6.05378 7.7679 6.12136 7.42581 6.21382 7.09125C6.34968 6.58004 6.56615 6.0983 6.8536 5.66748C6.97646 5.48466 7.11486 5.31479 7.26698 5.16009C7.30303 5.12093 7.34245 5.08267 7.38186 5.04532C7.63792 4.80382 7.92244 4.60041 8.2279 4.44047L8.25474 4.4268C8.83335 4.13629 9.46463 3.9906 10.102 4.00049C10.1682 4.00049 10.2462 4.0014 10.3233 4.00595C10.9567 4.0234 11.5783 4.19557 12.1421 4.50969C12.3952 4.65206 12.6324 4.82567 12.8489 5.0271C13.4565 5.56508 13.8477 6.33859 13.9398 7.18416C13.9566 7.33652 13.9651 7.48983 13.965 7.64328Z" fill="#FF7600"/>
</svg>
