
<svg width="76" height="75" viewBox="0 0 76 75" fill="none" xmlns="http://www.w3.org/2000/svg">
<g filter="url(#filter0_d)">
<ellipse cx="38" cy="33.5" rx="34" ry="33.5" fill="#FF5C00"/>
</g>
<g clip-path="url(#clip0)">
<path d="M21.8 29.125H23.6V40.375H21.8C21.5635 40.3753 21.3293 40.327 21.1108 40.2329C20.8923 40.1387 20.6938 40.0006 20.5266 39.8265C20.3594 39.6523 20.2268 39.4455 20.1364 39.2179C20.0461 38.9903 19.9997 38.7463 20 38.5V31C19.9997 30.7537 20.0461 30.5097 20.1364 30.2821C20.2268 30.0545 20.3594 29.8477 20.5266 29.6735C20.6938 29.4994 20.8923 29.3613 21.1108 29.2671C21.3293 29.173 21.5635 29.1247 21.8 29.125ZM50.6 26.3125V42.25C50.5991 43.2443 50.2195 44.1975 49.5445 44.9006C48.8696 45.6036 47.9545 45.999 47 46H29C28.0455 45.999 27.1304 45.6036 26.4555 44.9006C25.7805 44.1975 25.4009 43.2443 25.4 42.25V26.3125C25.3998 25.6969 25.5161 25.0872 25.7421 24.5184C25.9682 23.9496 26.2997 23.4328 26.7176 22.9975C27.1355 22.5622 27.6317 22.2169 28.1777 21.9814C28.7238 21.7459 29.309 21.6248 29.9 21.625H36.2V17.875C36.2 17.3777 36.3896 16.9008 36.7272 16.5492C37.0648 16.1975 37.5226 16 38 16C38.4774 16 38.9352 16.1975 39.2728 16.5492C39.6104 16.9008 39.8 17.3777 39.8 17.875V21.625H46.1C46.691 21.6248 47.2763 21.7459 47.8223 21.9814C48.3684 22.2169 48.8645 22.5622 49.2824 22.9975C49.7003 23.4328 50.0318 23.9496 50.2578 24.5184C50.4839 25.0872 50.6002 25.6969 50.6 26.3125ZM34.85 31C34.85 30.5365 34.718 30.0833 34.4708 29.6979C34.2236 29.3125 33.8722 29.012 33.461 28.8347C33.0499 28.6573 32.5975 28.6109 32.161 28.7013C31.7246 28.7917 31.3237 29.0149 31.009 29.3427C30.6943 29.6705 30.48 30.0881 30.3932 30.5428C30.3064 30.9974 30.351 31.4686 30.5213 31.8969C30.6916 32.3252 30.98 32.6912 31.35 32.9488C31.72 33.2063 32.155 33.3438 32.6 33.3438C32.8955 33.3438 33.1881 33.2832 33.4611 33.1654C33.7341 33.0476 33.9821 32.875 34.191 32.6573C34.4 32.4397 34.5657 32.1813 34.6788 31.8969C34.7918 31.6126 34.85 31.3078 34.85 31ZM34.4 38.5H30.8V40.375H34.4V38.5ZM39.8 38.5H36.2V40.375H39.8V38.5ZM45.65 31C45.65 30.5365 45.518 30.0833 45.2708 29.6979C45.0236 29.3125 44.6722 29.012 44.261 28.8347C43.8499 28.6573 43.3975 28.6109 42.961 28.7013C42.5246 28.7917 42.1237 29.0149 41.809 29.3427C41.4943 29.6705 41.2801 30.0881 41.1932 30.5428C41.1064 30.9974 41.151 31.4686 41.3213 31.8969C41.4916 32.3252 41.78 32.6912 42.15 32.9488C42.52 33.2063 42.955 33.3438 43.4 33.3438C43.6955 33.3438 43.9881 33.2832 44.2611 33.1654C44.5341 33.0476 44.7821 32.875 44.991 32.6573C45.2 32.4397 45.3657 32.1813 45.4788 31.8969C45.5918 31.6126 45.65 31.3078 45.65 31ZM45.2 38.5H41.6V40.375H45.2V38.5ZM56 31V38.5C56.0003 38.7463 55.9539 38.9903 55.8636 39.2179C55.7732 39.4455 55.6406 39.6523 55.4734 39.8265C55.3062 40.0006 55.1077 40.1387 54.8892 40.2329C54.6706 40.327 54.4365 40.3753 54.2 40.375H52.4V29.125H54.2C54.4365 29.1247 54.6706 29.173 54.8892 29.2671C55.1077 29.3613 55.3062 29.4994 55.4734 29.6735C55.6406 29.8477 55.7732 30.0545 55.8636 30.2821C55.9539 30.5097 56.0003 30.7537 56 31Z" fill="white"/>
</g>
<defs>
<filter id="filter0_d" x="0" y="0" width="76" height="75" filterUnits="userSpaceOnUse" color-interpolation-filters="sRGB">
<feFlood flood-opacity="0" result="BackgroundImageFix"/>
<feColorMatrix in="SourceAlpha" type="matrix" values="0 0 0 0 0 0 0 0 0 0 0 0 0 0 0 0 0 0 127 0"/>
<feOffset dy="4"/>
<feGaussianBlur stdDeviation="2"/>
<feColorMatrix type="matrix" values="0 0 0 0 0 0 0 0 0 0 0 0 0 0 0 0 0 0 0.25 0"/>
<feBlend mode="normal" in2="BackgroundImageFix" result="effect1_dropShadow"/>
<feBlend mode="normal" in="SourceGraphic" in2="effect1_dropShadow" result="shape"/>
</filter>
<clipPath id="clip0">
<rect width="36" height="30" fill="white" transform="translate(20 16)"/>
</clipPath>
</defs>
</svg>
